<?xml version="1.0" encoding="utf-8"?>
<!-- Generator: Adobe Illustrator 17.1.0, SVG Export Plug-In . SVG Version: 6.00 Build 0)  -->
<!DOCTYPE svg PUBLIC "-//W3C//DTD SVG 1.1//EN" "http://www.w3.org/Graphics/SVG/1.1/DTD/svg11.dtd">
<svg version="1.1" id="Layer_1" xmlns="http://www.w3.org/2000/svg" xmlns:xlink="http://www.w3.org/1999/xlink" x="0px" y="0px"
	 viewBox="-206 -116 1024 1024" enable-background="new -206 -116 1024 1024" xml:space="preserve">
<g>
	<circle cx="306" cy="436.7" r="130.3"/>
	<path d="M183.8,29.5l-75.3,81.4H-19.8c-44.8,0-81.4,36.7-81.4,81.4v488.7c0,44.8,36.7,81.4,81.4,81.4h651.6
		c44.8,0,81.4-36.6,81.4-81.4V192.4c0-44.8-36.6-81.4-81.4-81.4H503.5l-75.3-81.4H183.8z M306,640.3c-112,0-203.6-91.6-203.6-203.6
		S194,233.1,306,233.1s203.6,91.6,203.6,203.6S418,640.3,306,640.3z"/>
</g>
</svg>
