<?xml version="1.0" encoding="UTF-8" standalone="no"?>
<svg width="1024px" height="1024px" viewBox="0 0 1024 1024" version="1.1" xmlns="http://www.w3.org/2000/svg" xmlns:xlink="http://www.w3.org/1999/xlink" xmlns:sketch="http://www.bohemiancoding.com/sketch/ns">
    <!-- Generator: Sketch 3.5.1 (25234) - http://www.bohemiancoding.com/sketch -->
    <title>Film</title>
    <desc>Created with Sketch.</desc>
    <defs></defs>
            <path d="M768,128 L768,213.333333 L682.666667,213.333333 L682.666667,128 L341.333333,128 L341.333333,213.333333 L256,213.333333 L256,128 L170.666667,128 L170.666667,896 L256,896 L256,810.666667 L341.333333,810.666667 L341.333333,896 L682.666667,896 L682.666667,810.666667 L768,810.666667 L768,896 L853.333333,896 L853.333333,128 L768,128 L768,128 Z M341.333333,725.333333 L256,725.333333 L256,640 L341.333333,640 L341.333333,725.333333 L341.333333,725.333333 Z M341.333333,554.666667 L256,554.666667 L256,469.333333 L341.333333,469.333333 L341.333333,554.666667 L341.333333,554.666667 Z M341.333333,384 L256,384 L256,298.666667 L341.333333,298.666667 L341.333333,384 L341.333333,384 Z M768,725.333333 L682.666667,725.333333 L682.666667,640 L768,640 L768,725.333333 L768,725.333333 Z M768,554.666667 L682.666667,554.666667 L682.666667,469.333333 L768,469.333333 L768,554.666667 L768,554.666667 Z M768,384 L682.666667,384 L682.666667,298.666667 L768,298.666667 L768,384 L768,384 Z" id="Shape"></path>
</svg>
