<?xml version="1.0" encoding="UTF-8" standalone="no"?>
<svg width="1024px" height="1024px" viewBox="0 0 1024 1024" version="1.1" xmlns="http://www.w3.org/2000/svg" xmlns:xlink="http://www.w3.org/1999/xlink" xmlns:sketch="http://www.bohemiancoding.com/sketch/ns">
    <!-- Generator: Sketch 3.5.1 (25234) - http://www.bohemiancoding.com/sketch -->
    <title>googleplus</title>
    <desc>Created with Sketch.</desc>
    <defs></defs>
            <path d="M336.167882,468.142857 L336.167882,574.600001 L513.9781,574.600001 C505.08759,618.957144 460.635035,707.671431 336.167882,707.671431 C229.481751,707.671431 145.021897,618.957144 145.021897,512.5 C145.021897,406.042857 229.481751,317.328571 336.167882,317.328571 C398.401459,317.328571 438.408757,343.942857 460.635035,366.121429 L545.094887,286.278572 C491.751823,233.05 420.627736,202 336.167882,202 C162.802919,202 25,339.507143 25,512.5 C25,685.492858 162.802919,823 336.167882,823 C513.9781,823 634,698.800002 634,521.371429 C634,499.192858 634,485.885715 629.554744,468.142857 L336.167882,468.142857 L336.167882,468.142857 L336.167882,468.142857 Z" id="Shape-path"></path>
            <path d="M1000,467.666666 L911.333335,467.666666 L911.333335,379 L822.66667,379 L822.66667,467.666666 L734,467.666666 L734,556.333333 L822.66667,556.333333 L822.66667,645 L911.333335,645 L911.333335,556.333333 L1000,556.333333 L1000,467.666666 L1000,467.666666 Z" id="Shape-path"></path>
</svg>
