<?xml version="1.0" encoding="UTF-8" standalone="no"?>
<svg width="1024px" height="1024px" viewBox="0 0 1024 1024" version="1.1" xmlns="http://www.w3.org/2000/svg" xmlns:xlink="http://www.w3.org/1999/xlink" xmlns:sketch="http://www.bohemiancoding.com/sketch/ns">
    <!-- Generator: Sketch 3.5.1 (25234) - http://www.bohemiancoding.com/sketch -->
    <title>headset</title>
    <desc>Created with Sketch.</desc>
    <defs></defs>
            <path d="M512,107 C299.946667,107 128,278.946667 128,491 L128,789.666667 C128,860.493333 185.173333,917.666667 256,917.666667 L384,917.666667 L384,576.333333 L213.333333,576.333333 L213.333333,491 C213.333333,325.88 346.88,192.333333 512,192.333333 C677.12,192.333333 810.666667,325.88 810.666667,491 L810.666667,576.333333 L640,576.333333 L640,917.666667 L768,917.666667 C838.826667,917.666667 896,860.493333 896,789.666667 L896,491 C896,278.946667 724.053333,107 512,107 L512,107 Z" id="Shape"></path>
</svg>
