<?xml version="1.0" encoding="UTF-8" standalone="no"?>
<svg width="1024px" height="1024px" viewBox="0 0 1024 1024" version="1.1" xmlns="http://www.w3.org/2000/svg" xmlns:xlink="http://www.w3.org/1999/xlink" xmlns:sketch="http://www.bohemiancoding.com/sketch/ns">
    <!-- Generator: Sketch 3.5.1 (25234) - http://www.bohemiancoding.com/sketch -->
    <title>instagram</title>
    <desc>Created with Sketch.</desc>
    <defs></defs>
                <path d="M803.2,148 L220.8,148 C180.396,148 148,180.396 148,220.8 L148,803.2 C148,843.40633 180.59367,876 220.8,876 L803.2,876 C843.40633,876 876,843.40633 876,803.2 L876,220.8 C876,180.396 843.24,148 803.2,148 L803.2,148 M803.2,311.8 C803.2,321.851582 795.051583,330 785,330 L712.2,330 C702.148417,330 694,321.851582 694,311.8 L694,239 C694,228.948418 702.148417,220.8 712.2,220.8 L785,220.8 C795.051583,220.8 803.2,228.948418 803.2,239 L803.2,311.8 M239,803.2 C228.948418,803.2 220.8,795.051583 220.8,785 L220.8,475.6 L296.876,475.6 C294.692,487.248 293.6,499.624 293.6,512 C293.6,632.618989 391.381011,730.4 512,730.4 C632.618989,730.4 730.4,632.618989 730.4,512 C730.4,499.624 728.944,487.248 727.124,475.6 L803.2,475.6 L803.2,785 C803.2,795.051583 795.051583,803.2 785,803.2 L239,803.2 M512,366.4 C592.41266,366.4 657.6,431.58734 657.6,512 C657.6,592.41266 592.41266,657.6 512,657.6 C431.58734,657.6 366.4,592.41266 366.4,512 C366.4,431.58734 431.58734,366.4 512,366.4 L512,366.4" id="Shape"></path>
</svg>
