<?xml version="1.0" encoding="UTF-8" standalone="no"?>
<svg width="1024px" height="1024px" viewBox="0 0 1024 1024" version="1.1" xmlns="http://www.w3.org/2000/svg" xmlns:xlink="http://www.w3.org/1999/xlink" xmlns:sketch="http://www.bohemiancoding.com/sketch/ns">
    <!-- Generator: Sketch 3.5.1 (25234) - http://www.bohemiancoding.com/sketch -->
    <title>linkedin</title>
    <desc>Created with Sketch.</desc>
    <defs></defs>
            <path d="M249,174 C290.421356,174 324,207.578644 324,249 C324,290.421356 290.421356,324 249,324 C207.578644,324 174,290.421356 174,249 C174,207.578644 207.578644,174 249,174 L249,174 L249,174 Z" id="Shape-path"></path>
            <path d="M324,850 L174,850 L174,400 L324,400 L324,850 L324,850 L324,850 Z" id="Shape-path"></path>
            <path d="M850,850 L700.000001,850 L700.000001,596.875 C700.000001,557.124999 655.374999,524.124998 615.625001,524.124998 C575.875001,524.124998 550,557.124999 550,596.875 L550,850 L400,850 L400,400 L550,400 L550,475 C574.749998,434.875 638.499999,409 681.25,409 C775.000001,409 850,485.5 850,578.124998 L850,850 L850,850 L850,850 Z" id="Shape-path"></path>
</svg>
