<?xml version="1.0" encoding="UTF-8" standalone="no"?>
<svg width="1024px" height="1024px" viewBox="0 0 1024 1024" version="1.1" xmlns="http://www.w3.org/2000/svg" xmlns:xlink="http://www.w3.org/1999/xlink" xmlns:sketch="http://www.bohemiancoding.com/sketch/ns">
    <!-- Generator: Sketch 3.5.1 (25234) - http://www.bohemiancoding.com/sketch -->
    <title>linkedin</title>
    <desc>Created with Sketch.</desc>
    <defs></defs>
            <path d="M235,156 C278.630495,156 314,191.369505 314,235 C314,278.630495 278.630495,314 235,314 C191.369505,314 156,278.630495 156,235 C156,191.369505 191.369505,156 235,156 L235,156 L235,156 Z" id="Shape-path"></path>
            <path d="M314,868 L156,868 L156,395 L314,395 L314,868 L314,868 L314,868 Z" id="Shape-path"></path>
            <path d="M868,868 L710.333335,868 L710.333335,601.9375 C710.333335,560.155832 663.427499,525.469165 621.645835,525.469165 C579.864167,525.469165 552.666666,560.155832 552.666666,601.9375 L552.666666,868 L395,868 L395,395 L552.666666,395 L552.666666,473.833333 C578.681665,431.6575 645.689999,404.46 690.625,404.46 C789.166667,404.46 868,484.87 868,582.229165 L868,868 L868,868 L868,868 Z" id="Shape-path"></path>
</svg>
