<?xml version="1.0" encoding="UTF-8" standalone="no"?>
<svg width="1024px" height="1024px" viewBox="0 0 1024 1024" version="1.1" xmlns="http://www.w3.org/2000/svg" xmlns:xlink="http://www.w3.org/1999/xlink" xmlns:sketch="http://www.bohemiancoding.com/sketch/ns">
    <!-- Generator: Sketch 3.5.1 (25234) - http://www.bohemiancoding.com/sketch -->
    <title>magnifier</title>
    <desc>Created with Sketch.</desc>
    <defs></defs>
            <path d="M672.333333,608.333333 L638.626667,608.333333 L626.68,596.813333 C668.493333,548.173333 693.666667,485.026667 693.666667,416.333333 C693.666667,263.16 569.506667,139 416.333333,139 C263.16,139 139,263.16 139,416.333333 C139,569.506667 263.16,693.666667 416.333333,693.666667 C485.026667,693.666667 548.173333,668.493333 596.813333,626.68 L608.333333,638.626667 L608.333333,672.333333 L821.666667,885.24 L885.24,821.666667 L672.333333,608.333333 L672.333333,608.333333 Z M416.333333,608.333333 C310.093333,608.333333 224.333333,522.573333 224.333333,416.333333 C224.333333,310.093333 310.093333,224.333333 416.333333,224.333333 C522.573333,224.333333 608.333333,310.093333 608.333333,416.333333 C608.333333,522.573333 522.573333,608.333333 416.333333,608.333333 L416.333333,608.333333 Z" id="Shape"></path>
</svg>
