<?xml version="1.0" encoding="utf-8"?>
<!-- Generator: Adobe Illustrator 17.1.0, SVG Export Plug-In . SVG Version: 6.00 Build 0)  -->
<!DOCTYPE svg PUBLIC "-//W3C//DTD SVG 1.1//EN" "http://www.w3.org/Graphics/SVG/1.1/DTD/svg11.dtd">
<svg version="1.1" id="Layer_1" xmlns:sketch="http://www.bohemiancoding.com/sketch/ns"
	 xmlns="http://www.w3.org/2000/svg" xmlns:xlink="http://www.w3.org/1999/xlink" x="0px" y="0px" viewBox="0 0 1024 1024"
	 enable-background="new 0 0 1024 1024" xml:space="preserve">
<title>Search</title>
<desc>Created with Sketch.</desc>
<path id="Shape" d="M661.3,597.3h-33.7l-11.9-11.5c41.8-48.6,67-111.8,67-180.5c0-153.2-124.2-277.3-277.3-277.3
	S128,252.2,128,405.3s124.2,277.3,277.3,277.3c68.7,0,131.8-25.2,180.5-67l11.5,11.9v33.7l213.3,212.9l63.6-63.6L661.3,597.3
	L661.3,597.3z M405.3,597.3c-106.2,0-192-85.8-192-192s85.8-192,192-192s192,85.8,192,192S511.6,597.3,405.3,597.3L405.3,597.3z"/>
</svg>
