<?xml version="1.0" encoding="UTF-8" standalone="no"?>
<svg width="1024px" height="1024px" viewBox="0 0 1024 1024" version="1.1" xmlns="http://www.w3.org/2000/svg" xmlns:xlink="http://www.w3.org/1999/xlink" xmlns:sketch="http://www.bohemiancoding.com/sketch/ns">
    <!-- Generator: Sketch 3.5.2 (25235) - http://www.bohemiancoding.com/sketch -->
    <title>print</title>
    <desc>Created with Sketch.</desc>
    <defs></defs>
            <path d="M745.6,162 L279.4,162 L279.4,317.555556 L745.6,317.555556 L745.6,162 Z M784.45,512 C762.993737,512 745.6,494.588851 745.6,473.111111 C745.6,451.633371 762.993737,434.222222 784.45,434.222222 C805.906263,434.222222 823.3,451.633371 823.3,473.111111 C823.3,494.588851 805.906263,512 784.45,512 L784.45,512 Z M667.9,784.222222 L357.1,784.222222 L357.1,589.777778 L667.9,589.777778 L667.9,784.222222 Z M784.45,356.444444 L240.55,356.444444 C176.181212,356.444444 124,408.67789 124,473.111111 L124,706.444444 L279.4,706.444444 L279.4,862 L745.6,862 L745.6,706.444444 L901,706.444444 L901,473.111111 C901,408.67789 848.818788,356.444444 784.45,356.444444 L784.45,356.444444 Z" id="Shape"></path>
</svg>
