<?xml version="1.0" encoding="UTF-8" standalone="no"?>
<svg width="1024px" height="1024px" viewBox="0 0 1024 1024" version="1.1" xmlns="http://www.w3.org/2000/svg" xmlns:xlink="http://www.w3.org/1999/xlink" xmlns:sketch="http://www.bohemiancoding.com/sketch/ns">
    <!-- Generator: Sketch 3.5.2 (25235) - http://www.bohemiancoding.com/sketch -->
    <title>radio</title>
    <desc>Created with Sketch.</desc>
    <defs></defs>
    <g id="Page-1" fill-rule="evenodd">
        <g id="radio" fill="#000000">
            <path d="M558.832673,356.32568 L222.005592,356.32568 C166.777285,356.32568 122,401.101132 122,456.334451 L122,787.913547 C122,843.142523 166.774029,887.922318 222.005592,887.922318 L802.994408,887.922318 C858.222715,887.922318 903,843.146866 903,787.913547 L903,456.334451 C903,401.105475 858.225971,356.32568 802.994408,356.32568 L741.400325,356.32568 L733.508902,353.049576 L247.198493,151.15905 L214.873393,137.739367 L188.034027,202.389567 L220.359127,215.80925 L558.832673,356.32568 Z M196.519207,460.902068 L839.126394,460.902068 L839.126394,589.685953 L196.519207,589.685953 L196.519207,460.902068 L196.519207,460.902068 Z M771.38166,798.838728 C807.19257,798.838728 836.223048,769.792713 836.223048,733.962636 C836.223048,698.13256 807.19257,669.086544 771.38166,669.086544 C735.570751,669.086544 706.540273,698.13256 706.540273,733.962636 C706.540273,769.792713 735.570751,798.838728 771.38166,798.838728 L771.38166,798.838728 Z M582.664188,798.838728 C618.475098,798.838728 647.505576,769.792713 647.505576,733.962636 C647.505576,698.13256 618.475098,669.086544 582.664188,669.086544 C546.853279,669.086544 517.8228,698.13256 517.8228,733.962636 C517.8228,769.792713 546.853279,798.838728 582.664188,798.838728 L582.664188,798.838728 Z" id="Path"></path>
        </g>
    </g>
</svg>
