<?xml version="1.0" encoding="UTF-8" standalone="no"?>
<svg width="1024px" height="1024px" viewBox="0 0 1024 1024" version="1.1" xmlns="http://www.w3.org/2000/svg" xmlns:xlink="http://www.w3.org/1999/xlink" xmlns:sketch="http://www.bohemiancoding.com/sketch/ns">
    <!-- Generator: Sketch 3.5.1 (25234) - http://www.bohemiancoding.com/sketch -->
    <title>rss</title>
    <desc>Created with Sketch.</desc>
    <defs></defs>
            <path d="M184,385 L184,483.201439 C380.402878,483.201439 540.798561,643.597122 540.798561,840 L639,840 C639,587.94964 436.05036,385 184,385 L184,385 L184,385 Z" id="Shape-path"></path>
            <path d="M184,184 L184,282.25 C491.85,282.25 740.75,531.15 740.75,839 L839,839 C839,477.253489 545.746511,184 184,184 L184,184 L184,184 Z" id="Shape-path"></path>
            <path d="M276,840 L276,840 C226.714286,840 184,797.285714 184,748 L184,748 C184,698.714286 226.714286,656 276,656 L276,656 C325.285714,656 368,698.714286 368,748 L368,748 C368,797.285714 328.571429,840 276,840 L276,840 L276,840 Z" id="Shape-path"></path>
</svg>
