<?xml version="1.0" encoding="UTF-8" standalone="no"?>
<svg width="1024px" height="1024px" viewBox="0 0 1024 1024" version="1.1" xmlns="http://www.w3.org/2000/svg" xmlns:xlink="http://www.w3.org/1999/xlink" xmlns:sketch="http://www.bohemiancoding.com/sketch/ns">
    <!-- Generator: Sketch 3.5.1 (25234) - http://www.bohemiancoding.com/sketch -->
    <title>share</title>
    <desc>Created with Sketch.</desc>
    <defs></defs>
            <path d="M750.666667,676.100402 C720.435556,676.100402 693.386667,688.013052 672.702222,706.676205 L389.086667,541.884538 C391.075556,532.751506 392.666667,523.618474 392.666667,514.088353 C392.666667,504.558233 391.075556,495.425201 389.086667,486.292169 L669.52,323.088855 C691,342.943273 719.242222,355.253012 750.666667,355.253012 C816.697778,355.253012 870,302.043173 870,236.126506 C870,170.209839 816.697778,117 750.666667,117 C684.635556,117 631.333333,170.209839 631.333333,236.126506 C631.333333,245.656627 632.924444,254.789659 634.913333,263.922691 L354.48,427.126004 C333,407.271586 304.757778,394.961847 273.333333,394.961847 C207.302222,394.961847 154,448.171687 154,514.088353 C154,580.00502 207.302222,633.214859 273.333333,633.214859 C304.757778,633.214859 333,620.90512 354.48,601.050703 L637.697778,766.239458 C635.708889,774.578313 634.515556,783.314257 634.515556,792.050201 C634.515556,855.981426 686.624444,908 750.666667,908 C814.708889,908 866.817778,855.981426 866.817778,792.050201 C866.817778,728.118976 814.708889,676.100402 750.666667,676.100402 L750.666667,676.100402 Z" id="Shape"></path>
</svg>
