<?xml version="1.0" encoding="UTF-8" standalone="no"?>
<svg width="1024px" height="1024px" viewBox="0 0 1024 1024" version="1.1" xmlns="http://www.w3.org/2000/svg" xmlns:xlink="http://www.w3.org/1999/xlink" xmlns:sketch="http://www.bohemiancoding.com/sketch/ns">
    <!-- Generator: Sketch 3.5.1 (25234) - http://www.bohemiancoding.com/sketch -->
    <title>twitter</title>
    <desc>Created with Sketch.</desc>
    <defs></defs>
            <path d="M845,304.647059 C820.523423,315.785294 794.139581,323.104706 766.802104,326.605294 C794.775336,309.738823 816.391014,283.007059 826.563098,250.865294 C800.179254,266.777059 770.934513,277.915294 740.100382,284.28 C714.98805,256.911765 679.703634,241 639.651051,241 C564.949809,241 503.917304,302.101176 503.917304,377.522941 C503.917304,388.342941 505.188815,398.844705 507.413958,408.709999 C394.249522,402.981764 293.482314,348.563529 226.410134,266.140588 C214.648662,286.189412 207.973231,309.738823 207.973231,334.561176 C207.973231,381.978235 231.814053,423.985294 268.687859,447.852941 C246.118547,447.852941 225.138623,441.488235 206.701721,431.941176 C206.701721,431.941176 206.701721,431.941176 206.701721,432.895882 C206.701721,499.088823 253.74761,554.461764 316.051625,566.87294 C304.60803,570.055293 292.528681,571.64647 280.131453,571.64647 C271.548757,571.64647 262.966061,570.691764 254.701243,569.100587 C271.866635,622.882351 321.773423,662.98 381.852294,663.934705 C335.442161,700.849997 276.634799,722.49 212.423518,722.49 C201.615679,722.49 190.807839,721.853527 180,720.580587 C240.39675,759.405292 312.237094,782 389.16348,782 C639.651051,782 777.292066,573.874117 777.292066,393.434705 C777.292066,387.388235 777.292066,381.66 776.974189,375.613529 C803.675908,356.519411 826.563098,332.333529 845,304.647059 L845,304.647059 L845,304.647059 Z" id="Shape"></path>
</svg>
