<?xml version="1.0" encoding="UTF-8" standalone="no"?>
<svg width="1024px" height="1024px" viewBox="0 0 1024 1024" version="1.1" xmlns="http://www.w3.org/2000/svg" xmlns:xlink="http://www.w3.org/1999/xlink" xmlns:sketch="http://www.bohemiancoding.com/sketch/ns">
    <!-- Generator: Sketch 3.4.2 (15857) - http://www.bohemiancoding.com/sketch -->
    <title>Person</title>
    <desc>Created with Sketch.</desc>
    <defs></defs>
    <g id="Page-1" stroke="none" stroke-width="1" fill="none" fill-rule="evenodd" sketch:type="MSPage">
        <g id="Person" sketch:type="MSArtboardGroup">
            <g id="ic_person_black_48px" sketch:type="MSLayerGroup">
                <g id="Group" sketch:type="MSShapeGroup">
                    <path d="M512,512 C606.293333,512 682.666667,435.626667 682.666667,341.333333 C682.666667,247.04 606.293333,170.666667 512,170.666667 C417.706667,170.666667 341.333333,247.04 341.333333,341.333333 C341.333333,435.626667 417.706667,512 512,512 L512,512 Z M512,597.333333 C398.08,597.333333 170.666667,654.506667 170.666667,768 L170.666667,853.333333 L853.333333,853.333333 L853.333333,768 C853.333333,654.506667 625.92,597.333333 512,597.333333 L512,597.333333 Z" id="Shape" fill="#000000"></path>
                    <path d="M0,0 L1024,0 L1024,1024 L0,1024 L0,0 Z" id="Shape"></path>
                </g>
            </g>
        </g>
    </g>
</svg>