<?xml version="1.0" encoding="UTF-8" standalone="no"?>
<svg width="1024px" height="1024px" viewBox="0 0 1024 1024" version="1.1" xmlns="http://www.w3.org/2000/svg" xmlns:xlink="http://www.w3.org/1999/xlink" xmlns:sketch="http://www.bohemiancoding.com/sketch/ns">
    <!-- Generator: Sketch 3.5.1 (25234) - http://www.bohemiancoding.com/sketch -->
    <title>whatsapp</title>
    <desc>Created with Sketch.</desc>
    <defs></defs>
            <path d="M708.175,592.948 C718.5,598.317 725.108,601.208 727.173,605.338 C729.651,609.881 728.825,630.531 718.5,654.072 C710.24,677.2 667.288,699.502 648.29,700.328 C629.292,701.154 628.879,715.196 526.042,670.179 C423.205,625.162 361.255,515.304 356.299,508.283 C351.343,501.262 316.651,451.289 318.303,400.49 C320.368,350.104 346.8,326.15 357.538,316.238 C367.45,305.5 378.601,304.261 385.622,305.5 L405.033,305.5 C411.228,305.5 419.901,303.022 427.748,324.085 L456.245,401.316 C458.723,406.685 460.375,412.88 456.658,419.488 L445.507,436.421 L429.4,453.767 C424.444,458.723 418.662,464.092 424.444,474.417 C429.4,485.155 450.05,519.434 478.96,547.931 C516.543,584.275 549.583,596.252 559.495,601.621 C569.407,607.403 575.602,606.577 581.797,599.969 L615.25,561.147 C623.097,550.822 629.705,553.3 639.204,556.604 L708.175,592.948 L708.175,592.948 L708.175,592.948 Z M512,99 C621.53441,99 726.582575,142.512375 804.0351,219.964899 C881.487625,297.417424 925,402.46559 925,512 C925,740.093602 740.093602,925 512,925 C430.639,925 355.06,901.459 291.045,860.985 L99,925 L163.015,732.955 C122.541,668.94 99,593.361 99,512 C99,283.906398 283.906398,99 512,99 L512,99 L512,99 Z M512,181.6 C329.525119,181.6 181.6,329.525119 181.6,512 C181.6,583.036 203.902,648.703 241.898,702.393 L202.25,821.75 L321.607,782.102 C375.297,820.098 440.964,842.4 512,842.4 C694.474881,842.4 842.4,694.474881 842.4,512 C842.4,329.525119 694.474881,181.6 512,181.6 L512,181.6 L512,181.6 Z" id="Shape"></path>
</svg>
