<?xml version="1.0" encoding="UTF-8" standalone="no"?>
<svg width="1024px" height="1024px" viewBox="0 0 1024 1024" version="1.1" xmlns="http://www.w3.org/2000/svg" xmlns:xlink="http://www.w3.org/1999/xlink" xmlns:sketch="http://www.bohemiancoding.com/sketch/ns">
    <!-- Generator: Sketch 3.5.1 (25234) - http://www.bohemiancoding.com/sketch -->
    <title>youtube</title>
    <desc>Created with Sketch.</desc>
    <defs></defs>
            <path d="M433.4,688.28125 L433.4,336.71875 L667.7,512.5 L433.4,688.28125 L433.4,688.28125 Z M823.9,215.625 C800.47,207.8125 655.985,200 511.5,200 C367.015,200 222.53,207.421875 199.1,214.84375 C138.182,235.15625 121,371.875 121,512.5 C121,652.734375 138.182,789.84375 199.1,809.765625 C222.53,817.578125 367.015,825 511.5,825 C655.985,825 800.47,817.578125 823.9,809.765625 C884.818,789.84375 902,652.734375 902,512.5 C902,371.875 884.818,235.546875 823.9,215.625 L823.9,215.625 L823.9,215.625 Z" id="Shape"></path>
</svg>
